<svg version="1.1" viewBox="0.0 0.0 960.0 254.1259842519685" fill="none" stroke="none" stroke-linecap="square" stroke-miterlimit="10" xmlns:xlink="http://www.w3.org/1999/xlink" xmlns="http://www.w3.org/2000/svg"><clipPath id="p.0"><path d="m0 0l960.0 0l0 254.12599l-960.0 0l0 -254.12599z" clip-rule="nonzero"/></clipPath><g clip-path="url(#p.0)"><path fill="#000000" fill-opacity="0.0" d="m0 0l960.0 0l0 254.12599l-960.0 0z" fill-rule="evenodd"/><path fill="#93c47d" d="m530.5675 184.80618l0 0c0 -31.467194 57.998535 -56.976387 129.54333 -56.976387l0 0c71.5448 0 129.54327 25.509193 129.54327 56.976387l0 0c0 31.467178 -57.998474 56.976364 -129.54327 56.976364l0 0c-71.5448 0 -129.54333 -25.509186 -129.54333 -56.976364zm28.48822 0l0 0c0 15.733582 45.243896 28.488174 101.055115 28.488174c55.811157 0 101.055115 -12.754593 101.055115 -28.488174c0 -15.733597 -45.243958 -28.48819 -101.055115 -28.48819l0 0c-55.81122 0 -101.055115 12.754593 -101.055115 28.48819z" fill-rule="evenodd"/><path fill="#fff2cc" d="m692.26575 171.98398l0 0c-10.71521 -29.710312 35.367737 -72.21153 102.92914 -94.92914l0 0c67.5614 -22.717598 131.01709 -17.04889 141.7323 12.661423l0 0c10.715149 29.710304 -35.367737 72.21153 -102.92914 94.92914l0 0c-67.5614 22.71759 -131.01709 17.04889 -141.7323 -12.661423zm27.102356 -9.113205c5.357605 14.855164 52.336 12.561508 104.92914 -5.1230164c52.5932 -17.684525 90.88519 -44.06314 85.52759 -58.918297c-5.357605 -14.855156 -52.336 -12.561501 -104.92914 5.123024l0 0c-52.5932 17.684517 -90.88519 44.06314 -85.52759 58.91829z" fill-rule="evenodd"/><path fill="#cfe2f3" d="m23.968512 173.71573l0 0c-13.23744 -28.753601 29.03111 -74.80834 94.40945 -102.86614l0 0c65.37834 -28.057808 129.10902 -27.49376 142.34647 1.2598419l0 0c13.237427 28.753593 -29.031128 74.80833 -94.409454 102.86614l0 0c-65.37834 28.0578 -129.10902 27.493744 -142.34647 -1.2598419zm26.334917 -11.30191c6.618721 14.376801 53.19332 8.346191 104.02729 -13.469742c50.833954 -21.81594 86.677505 -51.155945 80.05878 -65.532745c-6.6187134 -14.376793 -53.193314 -8.346184 -104.02728 13.469749l0 0c-50.83397 21.815933 -86.677505 51.155937 -80.058784 65.53274z" fill-rule="evenodd"/><path fill="#741b47" d="m372.91583 116.39482l0 0c6.9927063 -30.736603 69.30618 -43.62516 139.18109 -28.7874l0 0c69.87488 14.837761 120.85095 51.78308 113.85828 82.519684l0 0c-6.992737 30.736603 -69.30621 43.625168 -139.18112 28.7874l0 0c-69.87488 -14.837753 -120.85098 -51.78308 -113.858246 -82.519684zm27.915375 5.927765l0 0c-3.4963684 15.368301 37.81595 37.201202 92.27359 48.765152c54.45764 11.56395 101.43866 8.479904 104.935 -6.888397l0 0c3.496338 -15.368301 -37.815918 -37.201202 -92.27359 -48.765144l0 0c-54.45764 -11.56395 -101.43866 -8.479912 -104.935 6.8883896z" fill-rule="evenodd"/><path fill="#93c47d" d="m781.86646 204.26091c-20.648743 24.996582 -77.86902 40.385193 -137.86743 37.07756c-59.998352 -3.3076172 -106.81323 -24.431564 -112.79639 -50.896317c-5.9831543 -26.464752 30.457092 -51.229797 87.79968 -59.669266c57.34259 -8.439461 120.33246 1.6918488 151.76868 24.410507l-37.68512 10.087357c-30.016785 -8.825943 -76.816345 -11.261673 -116.12018 -6.043625c-39.303772 5.218048 -62.26361 16.915192 -56.968445 29.023209c5.295166 12.108032 37.65326 21.901138 80.28766 24.298874c42.6344 2.3977509 85.94708 -3.1396484 107.468445 -13.739517z" fill-rule="evenodd"/><path fill="#ea9999" d="m184.31688 111.778984l0 0c0 -31.467186 57.99852 -56.976376 129.54332 -56.976376l0 0c71.5448 0 129.5433 25.50919 129.5433 56.976376l0 0c0 31.467186 -57.998505 56.976387 -129.5433 56.976387l0 0c-71.5448 0 -129.54332 -25.509201 -129.54332 -56.976387zm28.48819 0l0 0c0 15.733597 45.24391 28.488197 101.05513 28.488197c55.811188 0 101.055115 -12.754601 101.055115 -28.488197c0 -15.733589 -45.243927 -28.48819 -101.055115 -28.48819l0 0c-55.81122 0 -101.05513 12.754601 -101.05513 28.48819z" fill-rule="evenodd"/><path fill="#741b47" d="m609.1944 190.73062l0 0c-28.921387 17.558716 -86.90491 18.893784 -142.01187 3.2698212c-55.106903 -15.623962 -93.94406 -44.409714 -95.11896 -70.50134c-1.1749268 -26.091637 35.59796 -43.147842 90.0632 -41.77366c54.46527 1.3741837 113.38568 20.844788 144.30646 47.686928l-36.992554 4.7871857l0 0c-29.959656 -14.428902 -74.589874 -25.078949 -112.361145 -26.812576c-37.77127 -1.7336273 -60.924103 5.805313 -58.28955 18.98005c2.634552 13.174721 30.515259 29.27871 70.192444 40.543404c39.677216 11.264694 82.99988 15.375946 109.069214 10.350494z" fill-rule="evenodd"/><path fill="#ea9999" d="m443.0267 116.12481c-4.866089 27.972786 -55.305237 50.22486 -118.88995 52.45025c-63.584717 2.2253876 -121.39029 -16.238235 -136.25327 -43.52053c-14.862976 -27.282295 17.64029 -55.263252 76.61331 -65.95378c58.973022 -10.690533 126.86371 -0.90883255 160.02484 23.056412l-37.68512 10.087341c-32.591278 -9.582916 -84.51633 -11.541283 -124.97162 -4.7133408c-40.455307 6.827942 -58.615295 20.615082 -43.706894 33.182465c14.908386 12.567383 58.895767 20.552063 105.86748 19.217285c46.97171 -1.3347778 84.35843 -11.631836 89.9812 -24.782654z" fill-rule="evenodd"/><path fill="#cfe2f3" d="m258.4074 97.297775l0 0c-13.527649 30.95816 -58.80864 65.64198 -111.57132 85.46016c-52.762672 19.818176 -100.62372 20.119385 -117.9285 0.7421875c-17.304775 -19.377197 0.008117676 -53.88501 42.65856 -85.02644l30.843521 10.6502075l0 0c-37.2389 21.460678 -59.016727 44.33423 -53.891422 56.60289c5.125305 12.268646 35.981167 11.125549 76.35591 -2.82872c40.37475 -13.954254 81.031364 -37.5272 100.60885 -58.333588z" fill-rule="evenodd"/></g></svg>